<svg width="135" height="28" viewBox="0 0 135 28" fill="none" xmlns="http://www.w3.org/2000/svg">
<path d="M0.830078 5.78711C1.02539 4.79427 1.38346 4.01302 1.9043 3.44336C2.42513 2.85742 3.01921 2.45866 3.68652 2.24707C4.37012 2.03548 5.0944 1.98665 5.85938 2.10059C6.64062 2.19824 7.37305 2.43424 8.05664 2.80859C8.75651 3.18294 9.36686 3.67122 9.8877 4.27344C10.4085 4.85938 10.7747 5.53483 10.9863 6.2998C11.1979 7.0485 11.1979 7.8623 10.9863 8.74121C10.7747 9.62012 10.2946 10.5234 9.5459 11.4512C10.1318 11.6628 10.6771 11.8743 11.1816 12.0859C11.6862 12.2975 12.1094 12.5579 12.4512 12.8672C12.8092 13.1764 13.0859 13.5508 13.2812 13.9902C13.4766 14.4297 13.5742 14.9749 13.5742 15.626C13.5742 16.1631 13.4766 16.7327 13.2812 17.335C13.0859 17.9372 12.8092 18.5312 12.4512 19.1172C12.1094 19.7031 11.7025 20.2646 11.2305 20.8018C10.7747 21.3226 10.2783 21.7865 9.74121 22.1934C9.2041 22.6003 8.65072 22.9258 8.08105 23.1699C7.52767 23.3978 6.98242 23.5117 6.44531 23.5117C6.08724 23.5117 5.7373 23.2839 5.39551 22.8281C5.05371 22.3724 4.72005 21.7702 4.39453 21.0215C4.06901 20.2728 3.75163 19.4102 3.44238 18.4336C3.13314 17.457 2.84831 16.4479 2.58789 15.4062C2.32747 14.3483 2.09147 13.3066 1.87988 12.2812C1.66829 11.2396 1.48112 10.2793 1.31836 9.40039C1.17188 8.52148 1.0498 7.76465 0.952148 7.12988C0.870768 6.47884 0.830078 6.03125 0.830078 5.78711ZM5.17578 16.3584C5.17578 16.6351 5.24089 17.0013 5.37109 17.457C5.5013 17.9128 5.66406 18.3685 5.85938 18.8242C6.07096 19.2799 6.29883 19.7031 6.54297 20.0938C6.78711 20.4681 7.04753 20.7204 7.32422 20.8506C7.55208 20.9808 7.82064 20.9727 8.12988 20.8262C8.43913 20.6634 8.74837 20.4193 9.05762 20.0938C9.38314 19.752 9.69238 19.3695 9.98535 18.9463C10.2783 18.5068 10.5387 18.0755 10.7666 17.6523C11.0107 17.2292 11.1979 16.8385 11.3281 16.4805C11.4746 16.1061 11.5479 15.8213 11.5479 15.626C11.5479 15.2028 11.4909 14.861 11.377 14.6006C11.263 14.3239 11.0921 14.1042 10.8643 13.9414C10.6527 13.7786 10.3923 13.6647 10.083 13.5996C9.79004 13.5345 9.46452 13.502 9.10645 13.502C8.69954 13.502 8.26823 13.5671 7.8125 13.6973C7.35677 13.8275 6.93359 14.0146 6.54297 14.2588C6.16862 14.5029 5.8431 14.804 5.56641 15.1621C5.30599 15.5202 5.17578 15.9189 5.17578 16.3584ZM3.61328 8.05762C3.61328 8.35059 3.60514 8.7168 3.58887 9.15625C3.57259 9.57943 3.57259 10.0189 3.58887 10.4746C3.60514 10.9303 3.65397 11.3861 3.73535 11.8418C3.81673 12.2975 3.96322 12.6882 4.1748 13.0137C4.97233 12.8672 5.66406 12.5905 6.25 12.1836C6.85221 11.7767 7.33236 11.3047 7.69043 10.7676C8.06478 10.2142 8.33333 9.62826 8.49609 9.00977C8.65885 8.39128 8.71582 7.78906 8.66699 7.20312C8.63444 6.61719 8.49609 6.08008 8.25195 5.5918C8.02409 5.10352 7.69857 4.72917 7.27539 4.46875C6.85221 4.19206 6.33952 4.05371 5.7373 4.05371C5.13509 4.05371 4.44336 4.24902 3.66211 4.63965C3.66211 4.76986 3.65397 4.99772 3.6377 5.32324C3.6377 5.64876 3.62956 5.99056 3.61328 6.34863C3.61328 6.70671 3.61328 7.0485 3.61328 7.37402C3.61328 7.69954 3.61328 7.92741 3.61328 8.05762ZM14.5996 6.76367C14.5996 6.63346 14.6077 6.42188 14.624 6.12891C14.624 5.81966 14.624 5.50228 14.624 5.17676C14.624 4.83496 14.6322 4.51758 14.6484 4.22461C14.6484 3.91536 14.6484 3.70378 14.6484 3.58984C14.8275 3.24805 15.1042 3.00391 15.4785 2.85742C15.8691 2.69466 16.2842 2.58887 16.7236 2.54004C17.1794 2.47493 17.6188 2.45052 18.042 2.4668C18.4814 2.48307 18.8395 2.49121 19.1162 2.49121C19.4743 2.49121 19.8893 2.50749 20.3613 2.54004C20.8496 2.57259 21.3298 2.6377 21.8018 2.73535C22.29 2.81673 22.7702 2.94694 23.2422 3.12598C23.7142 3.28874 24.1292 3.50846 24.4873 3.78516C24.8617 4.04557 25.1546 4.37109 25.3662 4.76172C25.5941 5.13607 25.708 5.58366 25.708 6.10449C25.708 6.72298 25.5615 7.28451 25.2686 7.78906C24.9756 8.27734 24.6094 8.74121 24.1699 9.18066C23.7467 9.60384 23.2747 10.0026 22.7539 10.377C22.2493 10.7513 21.7773 11.1175 21.3379 11.4756C20.9147 11.8337 20.5566 12.1999 20.2637 12.5742C19.9707 12.9486 19.8242 13.3555 19.8242 13.7949C19.8242 13.8275 19.8324 13.8763 19.8486 13.9414C19.8812 13.9902 19.8975 14.0228 19.8975 14.0391C21.818 14.6087 23.6816 15.3005 25.4883 16.1143C27.3112 16.9281 29.1016 17.807 30.8594 18.751C30.9082 18.7835 30.957 18.8486 31.0059 18.9463C31.071 19.0277 31.1279 19.1335 31.1768 19.2637C31.2256 19.3776 31.2744 19.4834 31.3232 19.5811C31.3721 19.6787 31.3965 19.7601 31.3965 19.8252C31.3965 19.9717 31.3558 20.0856 31.2744 20.167C31.193 20.2321 31.0954 20.2891 30.9814 20.3379C30.8675 20.3704 30.7536 20.3867 30.6396 20.3867C30.5257 20.3867 30.4281 20.3867 30.3467 20.3867C29.4678 20.3867 28.5889 20.1995 27.71 19.8252C26.8473 19.4346 25.9766 19.0033 25.0977 18.5312C24.2188 18.0592 23.3236 17.6279 22.4121 17.2373C21.5169 16.8467 20.5811 16.6514 19.6045 16.6514H18.8232C19.0837 17.2536 19.3115 17.7907 19.5068 18.2627C19.7184 18.7347 19.8893 19.1904 20.0195 19.6299C20.166 20.0693 20.2718 20.5169 20.3369 20.9727C20.4183 21.4121 20.459 21.8923 20.459 22.4131C20.459 22.527 20.459 22.6654 20.459 22.8281C20.459 22.9746 20.4508 23.1292 20.4346 23.292C20.4183 23.4548 20.3695 23.6012 20.2881 23.7314C20.2067 23.8617 20.0765 23.9512 19.8975 24C19.2301 23.6094 18.6279 23.0072 18.0908 22.1934C17.57 21.3633 17.1143 20.4193 16.7236 19.3613C16.333 18.3034 15.9993 17.1803 15.7227 15.9922C15.4622 14.804 15.2425 13.6403 15.0635 12.501C14.9007 11.3454 14.7786 10.2712 14.6973 9.27832C14.6322 8.26921 14.5996 7.43099 14.5996 6.76367ZM16.6992 8.30176C16.6992 8.51335 16.6829 8.79004 16.6504 9.13184C16.6341 9.45736 16.6341 9.79915 16.6504 10.1572C16.6667 10.499 16.7155 10.8327 16.7969 11.1582C16.8945 11.4674 17.0492 11.736 17.2607 11.9639C17.2933 11.9801 17.3258 11.9883 17.3584 11.9883C17.3747 12.0046 17.4154 12.0127 17.4805 12.0127C17.7734 12.0127 18.1234 11.9232 18.5303 11.7441C18.9535 11.5651 19.3929 11.3291 19.8486 11.0361C20.3044 10.7432 20.752 10.4095 21.1914 10.0352C21.6471 9.64453 22.054 9.24577 22.4121 8.83887C22.7702 8.43197 23.055 8.02507 23.2666 7.61816C23.4945 7.19499 23.6084 6.8125 23.6084 6.4707C23.6084 6.14518 23.4863 5.86849 23.2422 5.64062C22.998 5.39648 22.7051 5.20117 22.3633 5.05469C22.0215 4.9082 21.6634 4.80241 21.2891 4.7373C20.931 4.6722 20.638 4.63965 20.4102 4.63965C20.1335 4.63965 19.8079 4.63965 19.4336 4.63965C19.0592 4.62337 18.6849 4.64779 18.3105 4.71289C17.9525 4.76172 17.627 4.85938 17.334 5.00586C17.041 5.15234 16.8376 5.37207 16.7236 5.66504C16.7236 5.7627 16.7236 5.93359 16.7236 6.17773C16.7236 6.42188 16.7236 6.69043 16.7236 6.9834C16.7236 7.26009 16.7155 7.52051 16.6992 7.76465C16.6992 8.00879 16.6992 8.18783 16.6992 8.30176ZM37.6465 2.56445C37.7441 2.27148 37.8825 2.10059 38.0615 2.05176C38.2568 2.00293 38.4766 1.97852 38.7207 1.97852C39.0951 1.97852 39.5101 2.23079 39.9658 2.73535C40.4378 3.22363 40.918 3.88281 41.4062 4.71289C41.8945 5.54297 42.3828 6.49512 42.8711 7.56934C43.3757 8.64355 43.8558 9.75846 44.3115 10.9141C44.7835 12.0534 45.223 13.1927 45.6299 14.332C46.0368 15.4714 46.3867 16.5212 46.6797 17.4814C46.9889 18.4255 47.2249 19.2474 47.3877 19.9473C47.5505 20.6471 47.6318 21.1273 47.6318 21.3877C47.6318 21.6481 47.5667 21.9004 47.4365 22.1445C47.3226 22.3724 47.111 22.4863 46.8018 22.4863C46.6064 22.4863 46.4355 22.4294 46.2891 22.3154C46.1589 22.1852 46.0449 22.0306 45.9473 21.8516C45.8496 21.6725 45.7601 21.4935 45.6787 21.3145C45.5973 21.1354 45.5241 20.9808 45.459 20.8506C45.3939 20.6715 45.2555 20.3298 45.0439 19.8252C44.8486 19.3206 44.637 18.7917 44.4092 18.2383C44.1976 17.6849 43.9941 17.1641 43.7988 16.6758C43.6035 16.1875 43.4652 15.8376 43.3838 15.626C42.2445 15.4307 41.097 15.2516 39.9414 15.0889C38.8021 14.9098 37.5977 14.7389 36.3281 14.5762H36.0596C35.4736 17.099 34.9528 19.0928 34.4971 20.5576C34.0576 22.0225 33.6833 23.0641 33.374 23.6826C33.0811 24.3011 32.8451 24.5534 32.666 24.4395C32.5033 24.3418 32.3893 23.9756 32.3242 23.3408C32.2754 22.6898 32.2835 21.8271 32.3486 20.7529C32.43 19.6787 32.5684 18.4987 32.7637 17.2129C32.9753 15.9108 33.2275 14.5518 33.5205 13.1357C33.8135 11.7197 34.1634 10.3525 34.5703 9.03418C34.9935 7.71582 35.4574 6.49512 35.9619 5.37207C36.4827 4.23275 37.0443 3.29688 37.6465 2.56445ZM37.0605 11.1582C37.0605 11.7604 37.2559 12.208 37.6465 12.501C38.0371 12.7777 38.5091 12.9567 39.0625 13.0381C39.6159 13.1195 40.1937 13.152 40.7959 13.1357C41.4144 13.1195 41.9434 13.1113 42.3828 13.1113C42.3828 12.4603 42.277 11.7604 42.0654 11.0117C41.8538 10.2467 41.5853 9.48991 41.2598 8.74121C40.9342 7.99251 40.5843 7.26823 40.21 6.56836C39.8519 5.85221 39.5182 5.20931 39.209 4.63965C39.0299 4.81868 38.8346 5.15234 38.623 5.64062C38.4277 6.11263 38.2243 6.64974 38.0127 7.25195C37.8174 7.83789 37.6383 8.41569 37.4756 8.98535C37.3128 9.55501 37.1908 10.0189 37.1094 10.377C37.1094 10.4258 37.1012 10.556 37.085 10.7676C37.0687 10.9629 37.0605 11.0931 37.0605 11.1582ZM48.584 15.333C48.584 14.5192 48.6979 13.6891 48.9258 12.8428C49.1699 11.9964 49.4954 11.1745 49.9023 10.377C50.3255 9.57943 50.8219 8.82259 51.3916 8.10645C51.9775 7.3903 52.6204 6.77181 53.3203 6.25098C54.0365 5.71387 54.7933 5.29883 55.5908 5.00586C56.4046 4.69661 57.2428 4.54199 58.1055 4.54199C58.4798 4.54199 58.96 4.58268 59.5459 4.66406C60.1481 4.74544 60.7259 4.88379 61.2793 5.0791C61.849 5.27441 62.3291 5.53483 62.7197 5.86035C63.1266 6.1696 63.3301 6.54395 63.3301 6.9834C63.3301 7.01595 63.3219 7.0485 63.3057 7.08105C63.3057 7.09733 63.3057 7.12174 63.3057 7.1543C63.2894 7.18685 63.2812 7.2194 63.2812 7.25195C63.2487 7.30078 63.1673 7.39844 63.0371 7.54492C62.9069 7.67513 62.8174 7.75651 62.7686 7.78906C62.736 7.80534 62.6953 7.81348 62.6465 7.81348C62.5977 7.82975 62.5488 7.83789 62.5 7.83789C62.4349 7.83789 62.3861 7.82975 62.3535 7.81348C62.321 7.81348 62.2884 7.80534 62.2559 7.78906C62.1745 7.74023 61.9792 7.64258 61.6699 7.49609C61.3607 7.33333 61.027 7.16243 60.6689 6.9834C60.3109 6.80436 59.9772 6.6416 59.668 6.49512C59.3587 6.33236 59.1634 6.2347 59.082 6.20215C59.0169 6.20215 58.9518 6.19401 58.8867 6.17773C58.8379 6.17773 58.7891 6.17773 58.7402 6.17773C58.6914 6.16146 58.6507 6.15332 58.6182 6.15332C57.8532 6.15332 57.1208 6.29167 56.4209 6.56836C55.721 6.84505 55.0781 7.22754 54.4922 7.71582C53.9062 8.2041 53.3773 8.76562 52.9053 9.40039C52.4333 10.0352 52.0264 10.7106 51.6846 11.4268C51.359 12.1266 51.1068 12.8509 50.9277 13.5996C50.765 14.332 50.6836 15.0482 50.6836 15.748C50.6836 16.6595 50.8301 17.4733 51.123 18.1895C51.416 18.9056 51.8229 19.5078 52.3438 19.9961C52.8646 20.4681 53.4831 20.8262 54.1992 21.0703C54.9316 21.3145 55.721 21.4365 56.5674 21.4365C57.0557 21.4365 57.6579 21.3714 58.374 21.2412C59.0902 21.111 59.7738 20.8994 60.4248 20.6064C61.0921 20.3135 61.6536 19.9391 62.1094 19.4834C62.5651 19.0114 62.793 18.4336 62.793 17.75C62.793 17.4733 62.7523 17.2617 62.6709 17.1152C62.5895 16.9525 62.4756 16.8385 62.3291 16.7734C62.1826 16.6921 62.0036 16.6514 61.792 16.6514C61.5804 16.6351 61.3607 16.627 61.1328 16.627C60.7747 16.627 60.4655 16.6839 60.2051 16.7979C59.9447 16.9118 59.6842 17.042 59.4238 17.1885C59.1797 17.335 58.9274 17.4652 58.667 17.5791C58.4229 17.693 58.1299 17.75 57.7881 17.75C57.3649 17.75 57.0312 17.6849 56.7871 17.5547C56.543 17.4245 56.4209 17.1234 56.4209 16.6514C56.4209 16.1956 56.5837 15.8294 56.9092 15.5527C57.251 15.2598 57.6497 15.04 58.1055 14.8936C58.5775 14.7471 59.0658 14.6494 59.5703 14.6006C60.0749 14.5518 60.4899 14.5273 60.8154 14.5273C61.4014 14.5273 61.9466 14.5762 62.4512 14.6738C62.9557 14.7552 63.387 14.918 63.7451 15.1621C64.1195 15.39 64.4043 15.7155 64.5996 16.1387C64.7949 16.5456 64.8926 17.0745 64.8926 17.7256C64.8926 18.7347 64.6159 19.6136 64.0625 20.3623C63.5091 21.0947 62.8092 21.6969 61.9629 22.1689C61.1328 22.641 60.2295 22.999 59.2529 23.2432C58.2926 23.471 57.3975 23.585 56.5674 23.585C55.3955 23.585 54.3132 23.3815 53.3203 22.9746C52.3438 22.5677 51.5055 21.998 50.8057 21.2656C50.1058 20.5169 49.5605 19.638 49.1699 18.6289C48.7793 17.6035 48.584 16.5049 48.584 15.333ZM66.4062 7.78906C66.4062 7.74023 66.4225 7.66699 66.4551 7.56934C66.4876 7.47168 66.5283 7.36589 66.5771 7.25195C66.6423 7.13802 66.6992 7.03223 66.748 6.93457C66.8132 6.83691 66.862 6.77181 66.8945 6.73926C66.9271 6.73926 66.9678 6.73112 67.0166 6.71484C67.0492 6.71484 67.0736 6.71484 67.0898 6.71484C67.1224 6.69857 67.1468 6.69043 67.1631 6.69043C67.4723 6.69043 67.7409 6.79622 67.9688 7.00781C68.2129 7.2194 68.4163 7.47982 68.5791 7.78906C68.7419 8.09831 68.8558 8.42383 68.9209 8.76562C69.0023 9.09115 69.043 9.37598 69.043 9.62012C69.043 9.78288 69.0186 10.0107 68.9697 10.3037C68.9209 10.5804 68.8395 10.8408 68.7256 11.085C68.6279 11.3291 68.4896 11.5488 68.3105 11.7441C68.1478 11.9232 67.9443 12.0127 67.7002 12.0127C67.4235 12.0127 67.2038 11.8337 67.041 11.4756C66.8945 11.1012 66.7643 10.6781 66.6504 10.2061C66.5527 9.71777 66.4876 9.24577 66.4551 8.79004C66.4225 8.31803 66.4062 7.98438 66.4062 7.78906ZM70.3613 5.78711C70.5566 4.79427 70.9147 4.01302 71.4355 3.44336C71.9564 2.85742 72.5505 2.45866 73.2178 2.24707C73.9014 2.03548 74.6257 1.98665 75.3906 2.10059C76.1719 2.19824 76.9043 2.43424 77.5879 2.80859C78.2878 3.18294 78.8981 3.67122 79.4189 4.27344C79.9398 4.85938 80.306 5.53483 80.5176 6.2998C80.7292 7.0485 80.7292 7.8623 80.5176 8.74121C80.306 9.62012 79.8258 10.5234 79.0771 11.4512C79.6631 11.6628 80.2083 11.8743 80.7129 12.0859C81.2174 12.2975 81.6406 12.5579 81.9824 12.8672C82.3405 13.1764 82.6172 13.5508 82.8125 13.9902C83.0078 14.4297 83.1055 14.9749 83.1055 15.626C83.1055 16.1631 83.0078 16.7327 82.8125 17.335C82.6172 17.9372 82.3405 18.5312 81.9824 19.1172C81.6406 19.7031 81.2337 20.2646 80.7617 20.8018C80.306 21.3226 79.8096 21.7865 79.2725 22.1934C78.7354 22.6003 78.182 22.9258 77.6123 23.1699C77.0589 23.3978 76.5137 23.5117 75.9766 23.5117C75.6185 23.5117 75.2686 23.2839 74.9268 22.8281C74.585 22.3724 74.2513 21.7702 73.9258 21.0215C73.6003 20.2728 73.2829 19.4102 72.9736 18.4336C72.6644 17.457 72.3796 16.4479 72.1191 15.4062C71.8587 14.3483 71.6227 13.3066 71.4111 12.2812C71.1995 11.2396 71.0124 10.2793 70.8496 9.40039C70.7031 8.52148 70.5811 7.76465 70.4834 7.12988C70.402 6.47884 70.3613 6.03125 70.3613 5.78711ZM74.707 16.3584C74.707 16.6351 74.7721 17.0013 74.9023 17.457C75.0326 17.9128 75.1953 18.3685 75.3906 18.8242C75.6022 19.2799 75.8301 19.7031 76.0742 20.0938C76.3184 20.4681 76.5788 20.7204 76.8555 20.8506C77.0833 20.9808 77.3519 20.9727 77.6611 20.8262C77.9704 20.6634 78.2796 20.4193 78.5889 20.0938C78.9144 19.752 79.2236 19.3695 79.5166 18.9463C79.8096 18.5068 80.07 18.0755 80.2979 17.6523C80.542 17.2292 80.7292 16.8385 80.8594 16.4805C81.0059 16.1061 81.0791 15.8213 81.0791 15.626C81.0791 15.2028 81.0221 14.861 80.9082 14.6006C80.7943 14.3239 80.6234 14.1042 80.3955 13.9414C80.1839 13.7786 79.9235 13.6647 79.6143 13.5996C79.3213 13.5345 78.9958 13.502 78.6377 13.502C78.2308 13.502 77.7995 13.5671 77.3438 13.6973C76.888 13.8275 76.4648 14.0146 76.0742 14.2588C75.6999 14.5029 75.3743 14.804 75.0977 15.1621C74.8372 15.5202 74.707 15.9189 74.707 16.3584ZM73.1445 8.05762C73.1445 8.35059 73.1364 8.7168 73.1201 9.15625C73.1038 9.57943 73.1038 10.0189 73.1201 10.4746C73.1364 10.9303 73.1852 11.3861 73.2666 11.8418C73.348 12.2975 73.4945 12.6882 73.7061 13.0137C74.5036 12.8672 75.1953 12.5905 75.7812 12.1836C76.3835 11.7767 76.8636 11.3047 77.2217 10.7676C77.596 10.2142 77.8646 9.62826 78.0273 9.00977C78.1901 8.39128 78.2471 7.78906 78.1982 7.20312C78.1657 6.61719 78.0273 6.08008 77.7832 5.5918C77.5553 5.10352 77.2298 4.72917 76.8066 4.46875C76.3835 4.19206 75.8708 4.05371 75.2686 4.05371C74.6663 4.05371 73.9746 4.24902 73.1934 4.63965C73.1934 4.76986 73.1852 4.99772 73.1689 5.32324C73.1689 5.64876 73.1608 5.99056 73.1445 6.34863C73.1445 6.70671 73.1445 7.0485 73.1445 7.37402C73.1445 7.69954 73.1445 7.92741 73.1445 8.05762ZM84.1797 17.2129C84.1797 16.3828 84.2855 15.5446 84.4971 14.6982C84.7249 13.8356 85.0342 13.0137 85.4248 12.2324C85.8317 11.4512 86.32 10.7269 86.8896 10.0596C87.4593 9.37598 88.0859 8.79004 88.7695 8.30176C89.4694 7.7972 90.2262 7.40658 91.04 7.12988C91.8538 6.83691 92.7083 6.69043 93.6035 6.69043C94.4987 6.69043 95.2718 6.86947 95.9229 7.22754C96.5902 7.56934 97.1436 8.0332 97.583 8.61914C98.0225 9.20508 98.348 9.88053 98.5596 10.6455C98.7712 11.3942 98.877 12.1592 98.877 12.9404C98.877 14.3076 98.6735 15.6585 98.2666 16.9932C97.8597 18.3115 97.2575 19.4997 96.46 20.5576C95.6624 21.5993 94.6696 22.4456 93.4814 23.0967C92.3096 23.7314 90.9587 24.0488 89.4287 24.0488C88.5173 24.0488 87.7279 23.8454 87.0605 23.4385C86.4095 23.0153 85.8643 22.4782 85.4248 21.8271C85.0016 21.1598 84.6842 20.4274 84.4727 19.6299C84.2773 18.8161 84.1797 18.0104 84.1797 17.2129ZM86.2549 17.75C86.2549 18.1895 86.3281 18.6533 86.4746 19.1416C86.6211 19.6299 86.8245 20.0775 87.085 20.4844C87.3454 20.8913 87.6709 21.2331 88.0615 21.5098C88.4684 21.7865 88.9242 21.9248 89.4287 21.9248C90.5192 21.9248 91.512 21.6807 92.4072 21.1924C93.3024 20.6878 94.0755 20.0449 94.7266 19.2637C95.3776 18.4661 95.8822 17.5791 96.2402 16.6025C96.5983 15.626 96.7773 14.6576 96.7773 13.6973C96.7773 13.1439 96.7611 12.5742 96.7285 11.9883C96.696 11.4023 96.5902 10.8734 96.4111 10.4014C96.2321 9.91309 95.9473 9.52246 95.5566 9.22949C95.1823 8.92025 94.637 8.76562 93.9209 8.76562C93.693 8.76562 93.3838 8.77376 92.9932 8.79004C92.6188 8.80632 92.2445 8.85514 91.8701 8.93652C91.4958 9.00163 91.1621 9.10742 90.8691 9.25391C90.5924 9.40039 90.4541 9.60384 90.4541 9.86426C90.4541 9.89681 90.4785 9.97005 90.5273 10.084C90.5924 10.1816 90.6576 10.2874 90.7227 10.4014C90.7878 10.5153 90.8447 10.6292 90.8936 10.7432C90.9424 10.8408 90.9668 10.9059 90.9668 10.9385C90.9668 10.971 90.9017 11.0605 90.7715 11.207C90.6413 11.3372 90.5355 11.4186 90.4541 11.4512C89.6403 11.6628 88.9567 11.9313 88.4033 12.2568C87.8662 12.5661 87.4349 12.973 87.1094 13.4775C86.8001 13.9821 86.5804 14.5843 86.4502 15.2842C86.32 15.984 86.2549 16.806 86.2549 17.75ZM100.928 7.25195C101.188 7.44727 101.4 7.69141 101.562 7.98438C101.725 8.26107 101.855 8.5459 101.953 8.83887C101.969 9.45736 101.978 10.1979 101.978 11.0605C101.978 11.9232 102.01 12.8184 102.075 13.7461C102.14 14.6738 102.262 15.6016 102.441 16.5293C102.62 17.4408 102.897 18.2627 103.271 18.9951C103.662 19.7275 104.175 20.3216 104.81 20.7773C105.461 21.2168 106.274 21.4365 107.251 21.4365C108.146 21.4365 108.911 21.2249 109.546 20.8018C110.197 20.3786 110.734 19.8415 111.157 19.1904C111.597 18.5394 111.914 17.8151 112.109 17.0176C112.321 16.2038 112.427 15.4144 112.427 14.6494C112.427 13.1683 112.354 11.6628 112.207 10.1328C112.061 8.58659 111.792 7.09733 111.401 5.66504C111.515 5.37207 111.662 5.20931 111.841 5.17676C112.02 5.12793 112.215 5.10352 112.427 5.10352C112.85 5.10352 113.184 5.27441 113.428 5.61621C113.672 5.95801 113.851 6.39746 113.965 6.93457C114.095 7.4554 114.168 8.0332 114.185 8.66797C114.217 9.28646 114.217 9.88053 114.185 10.4502C114.168 11.0036 114.136 11.5 114.087 11.9395C114.054 12.3626 114.038 12.6312 114.038 12.7451C114.038 13.5915 114.014 14.4541 113.965 15.333C113.932 16.1956 113.835 17.0257 113.672 17.8232C113.525 18.6208 113.298 19.3695 112.988 20.0693C112.695 20.7529 112.297 21.3551 111.792 21.876C111.287 22.3805 110.661 22.7793 109.912 23.0723C109.163 23.3652 108.268 23.5117 107.227 23.5117C105.908 23.5117 104.826 23.2594 103.979 22.7549C103.133 22.2503 102.45 21.583 101.929 20.7529C101.424 19.9066 101.042 18.9463 100.781 17.8721C100.537 16.7979 100.358 15.6992 100.244 14.5762C100.146 13.4531 100.073 12.3464 100.024 11.2559C99.9919 10.1654 99.943 9.18066 99.8779 8.30176L100.928 7.25195ZM125 9.35156C124.935 9.1237 124.805 8.96908 124.609 8.8877C124.43 8.80632 124.227 8.76562 123.999 8.76562C123.787 8.74935 123.576 8.75749 123.364 8.79004C123.153 8.82259 122.99 8.83887 122.876 8.83887C122.599 8.82259 122.119 8.79004 121.436 8.74121C120.752 8.69238 120.011 8.64355 119.214 8.59473C118.433 8.52962 117.7 8.47266 117.017 8.42383C116.333 8.35872 115.853 8.31803 115.576 8.30176C115.576 8.26921 115.568 8.18783 115.552 8.05762C115.535 7.92741 115.527 7.83789 115.527 7.78906C115.527 7.5612 115.544 7.35775 115.576 7.17871C115.625 6.99967 115.788 6.86133 116.064 6.76367C117.594 6.79622 119.1 6.78809 120.581 6.73926C122.078 6.69043 123.568 6.62533 125.049 6.54395C126.546 6.44629 128.035 6.35677 129.517 6.27539C131.014 6.19401 132.52 6.15332 134.033 6.15332C134.033 6.77181 133.887 7.22754 133.594 7.52051C133.301 7.7972 132.935 7.98438 132.495 8.08203C132.072 8.17969 131.6 8.22038 131.079 8.2041C130.558 8.18783 130.054 8.19596 129.565 8.22852C129.093 8.26107 128.67 8.35872 128.296 8.52148C127.938 8.66797 127.702 8.94466 127.588 9.35156C127.572 9.44922 127.555 9.63639 127.539 9.91309C127.523 10.1898 127.507 10.4827 127.49 10.792C127.49 11.1012 127.482 11.3942 127.466 11.6709C127.466 11.9313 127.466 12.1185 127.466 12.2324C127.466 13.1602 127.58 14.0798 127.808 14.9912C128.052 15.8864 128.312 16.7816 128.589 17.6768C128.882 18.5557 129.142 19.4427 129.37 20.3379C129.614 21.2168 129.736 22.112 129.736 23.0234C129.736 23.707 129.346 24.0488 128.564 24.0488C128.092 24.0488 127.669 23.7233 127.295 23.0723C126.937 22.4212 126.619 21.5911 126.343 20.582C126.082 19.5729 125.863 18.4743 125.684 17.2861C125.521 16.098 125.382 14.9587 125.269 13.8682C125.171 12.7777 125.098 11.8174 125.049 10.9873C125.016 10.1572 125 9.61198 125 9.35156Z" fill="url(#paint0_linear_21_50)"/>
<defs>
<linearGradient id="paint0_linear_21_50" x1="-35.5743" y1="4" x2="174.321" y2="28.193" gradientUnits="userSpaceOnUse">
<stop stop-color="#E6A4FD"/>
<stop offset="1" stop-color="#D4FC79"/>
</linearGradient>
</defs>
</svg>
