<svg width="45" height="45" viewBox="0 0 45 45" fill="none" xmlns="http://www.w3.org/2000/svg">
<path fill-rule="evenodd" clip-rule="evenodd" d="M32.2284 15.1429C32.453 14.4691 32.2776 13.7263 31.7754 13.2241C31.2732 12.7219 30.5304 12.5466 29.8567 12.7712L17.9317 16.7462C17.3718 16.9328 16.9325 17.3721 16.7458 17.932L12.7708 29.857C12.5462 30.5308 12.7216 31.2736 13.2238 31.7758C13.726 32.278 14.4688 32.4533 15.1425 32.2287L27.0675 28.2537C27.6274 28.0671 28.0668 27.6278 28.2534 27.0679L32.2284 15.1429ZM17.5142 27.4853L20.0069 20.0073L27.485 17.5146L24.9923 24.9926L17.5142 27.4853Z" fill="white"/>
<path fill-rule="evenodd" clip-rule="evenodd" d="M22.5 1.875C11.1091 1.875 1.875 11.1091 1.875 22.5C1.875 33.8909 11.1091 43.125 22.5 43.125C33.8909 43.125 43.125 33.8909 43.125 22.5C43.125 11.1091 33.8909 1.875 22.5 1.875ZM5.625 22.5C5.625 13.1802 13.1802 5.625 22.5 5.625C31.8198 5.625 39.375 13.1802 39.375 22.5C39.375 31.8198 31.8198 39.375 22.5 39.375C13.1802 39.375 5.625 31.8198 5.625 22.5Z" fill="white"/>
</svg>
