<svg width="45" height="45" viewBox="0 0 45 45" fill="none" xmlns="http://www.w3.org/2000/svg">
<path fill-rule="evenodd" clip-rule="evenodd" d="M16.875 3.75C11.6973 3.75 7.5 7.94733 7.5 13.125C7.5 18.3027 11.6973 22.5 16.875 22.5C22.0527 22.5 26.25 18.3027 26.25 13.125C26.25 7.94733 22.0527 3.75 16.875 3.75ZM11.25 13.125C11.25 10.0184 13.7684 7.5 16.875 7.5C19.9816 7.5 22.5 10.0184 22.5 13.125C22.5 16.2316 19.9816 18.75 16.875 18.75C13.7684 18.75 11.25 16.2316 11.25 13.125Z" fill="white"/>
<path d="M11.25 26.25C8.76359 26.25 6.37903 27.2377 4.62087 28.9959C2.86272 30.754 1.875 33.1386 1.875 35.625V39.375C1.875 40.4105 2.71447 41.25 3.75 41.25C4.78553 41.25 5.625 40.4105 5.625 39.375V35.625C5.625 34.1332 6.21763 32.7024 7.27252 31.6475C8.32742 30.5926 9.75816 30 11.25 30H22.5C23.9918 30 25.4226 30.5926 26.4775 31.6475C27.5324 32.7024 28.125 34.1332 28.125 35.625V39.375C28.125 40.4105 28.9645 41.25 30 41.25C31.0355 41.25 31.875 40.4105 31.875 39.375V35.625C31.875 33.1386 30.8873 30.754 29.1291 28.9959C27.371 27.2377 24.9864 26.25 22.5 26.25H11.25Z" fill="white"/>
<path d="M33.81 27.8998C34.0689 26.8971 35.0916 26.2942 36.0942 26.5531C38.1054 27.0724 39.8873 28.2449 41.1599 29.8866C42.4325 31.5283 43.1239 33.5462 43.1255 35.6234V39.3748C43.1255 40.4103 42.286 41.2498 41.2505 41.2498C40.2149 41.2498 39.3755 40.4103 39.3755 39.3748V35.6262C39.3744 34.3801 38.9596 33.169 38.1961 32.1841C37.4325 31.1991 36.3634 30.4956 35.1567 30.184C34.1541 29.9251 33.5511 28.9024 33.81 27.8998Z" fill="white"/>
<path d="M30.4655 4.05212C29.4624 3.79526 28.4409 4.40028 28.184 5.40345C27.9272 6.40662 28.5322 7.42808 29.5354 7.68493C30.7453 7.99473 31.8178 8.69842 32.5836 9.68505C33.3495 10.6717 33.7652 11.8852 33.7652 13.1341C33.7652 14.3831 33.3495 15.5966 32.5836 16.5832C31.8178 17.5699 30.7453 18.2736 29.5354 18.5834C28.5322 18.8402 27.9272 19.8617 28.184 20.8648C28.4409 21.868 29.4624 22.473 30.4655 22.2162C32.4821 21.6998 34.2695 20.527 35.5459 18.8826C36.8223 17.2382 37.5152 15.2158 37.5152 13.1341C37.5152 11.0525 36.8223 9.03005 35.5459 7.38566C34.2695 5.74126 32.4821 4.56845 30.4655 4.05212Z" fill="white"/>
</svg>
