<svg width="45" height="45" viewBox="0 0 45 45" fill="none" xmlns="http://www.w3.org/2000/svg">
<path d="M8.58128 2.21817C9.42728 2.81534 9.62899 3.98527 9.03181 4.83126C6.95869 7.76819 5.625 11.1481 5.625 15C5.625 16.0355 4.78553 16.875 3.75 16.875C2.71447 16.875 1.875 16.0355 1.875 15C1.875 10.2269 3.54131 6.10677 5.96819 2.6687C6.56536 1.8227 7.73528 1.62099 8.58128 2.21817Z" fill="white"/>
<path fill-rule="evenodd" clip-rule="evenodd" d="M40.4316 30.3257L40.437 30.3296C41.1091 30.7914 41.4066 31.6359 41.1697 32.4183C40.9303 33.2091 40.2014 33.75 39.3751 33.75H5.62515C4.79889 33.75 4.07003 33.2091 3.8306 32.4183C3.59371 31.6359 3.89115 30.7914 4.56331 30.3296L4.56867 30.3257C4.58311 30.3149 4.61658 30.2894 4.6665 30.2478C4.76628 30.1647 4.932 30.0171 5.14289 29.7945C5.56369 29.3503 6.16948 28.6021 6.79159 27.4615C8.03064 25.1899 9.37515 21.2862 9.37515 15C9.37515 11.519 10.758 8.18064 13.2194 5.71922C15.6808 3.25781 19.0192 1.875 22.5001 1.875C25.9811 1.875 29.3195 3.25781 31.7809 5.71922C34.2423 8.18064 35.6251 11.519 35.6251 15C35.6251 21.2862 36.9696 25.1899 38.2087 27.4615C38.8308 28.6021 39.4366 29.3503 39.8574 29.7945C40.0683 30.0171 40.234 30.1647 40.3338 30.2478C40.3837 30.2894 40.4172 30.3149 40.4316 30.3257ZM15.871 8.37087C17.6292 6.61272 20.0137 5.625 22.5001 5.625C24.9866 5.625 27.3711 6.61272 29.1293 8.37087C30.8874 10.129 31.8751 12.5136 31.8751 15C31.8751 21.8388 33.3431 26.3726 34.9166 29.2572C35.0593 29.5188 35.2025 29.7662 35.3452 30H9.65513C9.79779 29.7662 9.94102 29.5188 10.0837 29.2572C11.6571 26.3726 13.1251 21.8388 13.1251 15C13.1251 12.5136 14.1129 10.129 15.871 8.37087Z" fill="white"/>
<path d="M20.9555 38.4717C20.4566 37.5642 19.3166 37.2331 18.4091 37.732C17.5017 38.2309 17.1705 39.3709 17.6694 40.2784C18.1451 41.1434 18.8443 41.8649 19.694 42.3674C20.5437 42.8699 21.5128 43.135 22.5 43.135C23.4872 43.135 24.4563 42.8699 25.306 42.3674C26.1557 41.8649 26.8549 41.1434 27.3305 40.2784C27.8294 39.3709 27.4983 38.2309 26.5908 37.732C25.6834 37.2331 24.5433 37.5642 24.0444 38.4717C23.8924 38.7482 23.6688 38.9789 23.3971 39.1396C23.1255 39.3002 22.8156 39.385 22.5 39.385C22.1844 39.385 21.8745 39.3002 21.6028 39.1396C21.3311 38.9789 21.1076 38.7482 20.9555 38.4717Z" fill="white"/>
<path d="M39.032 2.6687C38.4348 1.8227 37.2649 1.62099 36.4189 2.21817C35.5729 2.81534 35.3712 3.98527 35.9683 4.83126C38.0415 7.76819 39.3752 11.1481 39.3752 15C39.3752 16.0355 40.2146 16.875 41.2502 16.875C42.2857 16.875 43.1252 16.0355 43.1252 15C43.1252 10.2269 41.4588 6.10677 39.032 2.6687Z" fill="white"/>
</svg>
